<svg width="1035" height="342" viewBox="0 0 1035 342" fill="none" xmlns="http://www.w3.org/2000/svg">
<path d="M42.5536 42.5098H99.3666C112.31 42.4056 125.05 45.7288 136.294 52.1418C147.49 58.4723 156.788 67.6853 163.221 78.8238C169.894 90.1912 173.227 102.993 173.221 117.23C173.027 138.414 165.897 158.95 152.921 175.696C142.804 188.653 129.878 199.145 115.117 206.381C100.355 213.616 84.1445 217.407 67.7056 217.467H5.37157C2.43357 217.467 0.964229 216.28 0.963562 213.906C1.00011 213.369 1.08206 212.837 1.20856 212.314L36.1766 47.7818C36.9106 44.2638 39.0362 42.5065 42.5536 42.5098ZM127.58 120.41C127.677 113.923 126.092 107.521 122.98 101.829C119.973 96.3592 115.461 91.8659 109.98 88.8808C103.965 85.6713 97.2244 84.0654 90.4086 84.2178H73.9595L54.5736 175.754H71.0216C79.6204 175.75 88.0874 173.641 95.6835 169.611C103.471 165.577 110.293 159.907 115.684 152.989C121.024 146.295 124.758 138.465 126.601 130.103C127.222 126.91 127.549 123.667 127.58 120.414V120.41Z" fill="#121E3A"/>
<path d="M219.291 42.5098H336.468C339.254 42.5098 340.645 43.6934 340.642 46.0608C340.608 46.6413 340.526 47.2179 340.397 47.7848L334.02 77.9668C333.275 81.3948 331.193 83.1198 327.755 83.1198H250.955L244.822 112.2H303.091C306.365 112.2 308.001 113.466 307.999 116C307.958 116.539 307.876 117.073 307.754 117.6L302.478 141.895C301.744 145.323 299.499 147.048 295.734 147.048H237.453L230.953 177.107H309.969C312.907 177.107 314.387 178.373 314.387 180.913C314.398 181.365 314.357 181.817 314.265 182.26L307.755 212.32C307.021 215.758 304.936 217.475 301.5 217.473H182.12C179.17 217.473 177.698 216.286 177.702 213.912C177.743 213.376 177.825 212.843 177.947 212.32L212.914 47.7878C213.649 44.2658 215.775 42.5064 219.291 42.5098Z" fill="#121E3A"/>
<path d="M370.201 43.9179C371.3 42.994 372.694 42.4945 374.13 42.5099H409.342C412.117 42.5099 413.515 43.6929 413.515 46.0609C413.476 46.6415 413.391 47.218 413.26 47.7849L386.149 175.758H451.421C454.287 175.758 455.721 176.901 455.721 179.186C455.687 179.766 455.605 180.343 455.476 180.91L448.732 212.317C447.998 215.755 445.951 217.473 442.589 217.47H336.948C334.081 217.47 332.648 216.324 332.648 214.031C332.681 213.454 332.763 212.88 332.893 212.317L367.861 47.7849C368.189 46.2717 369.013 44.9112 370.201 43.9179Z" fill="#121E3A"/>
<path d="M481.971 42.5098H609.821C612.606 42.5098 613.997 43.6934 613.994 46.0608C613.96 46.6412 613.878 47.2179 613.749 47.7848L607.491 77.5998C606.757 81.1098 604.665 82.8748 601.237 82.8748H559.391L531.791 212.317C531.047 215.755 528.965 217.47 525.526 217.47H491.542C488.603 217.47 487.134 216.283 487.134 213.909C487.17 213.372 487.252 212.839 487.379 212.317L514.979 82.8748H473.391C470.524 82.8748 469.092 81.6878 469.096 79.3138C469.129 78.7365 469.211 78.1631 469.341 77.5998L475.591 47.7848C476.328 44.2668 478.461 42.5098 481.971 42.5098Z" fill="#121E3A"/>
<path d="M669.95 42.5098H698.785C702.132 42.5098 704.101 44.2648 704.673 47.7848L733.998 212.317C734.09 212.76 734.131 213.212 734.12 213.664C734.12 216.204 732.641 217.47 729.702 217.47H695.836C692.316 217.47 690.313 215.752 689.827 212.317L686.51 189.247H622.218L609.331 212.317C607.535 215.755 604.838 217.472 601.24 217.47H564.915C562.629 217.47 561.486 216.736 561.487 215.27C561.596 214.209 561.975 213.194 562.587 212.321L661.481 47.7848C663.522 44.2648 666.345 42.5064 669.95 42.5098ZM681.113 151.341L673.501 97.8408L643.564 151.341H681.113Z" fill="#121E3A"/>
<path d="M846.003 166.467C845.804 166.728 845.703 167.051 845.719 167.38C845.735 167.708 845.866 168.02 846.09 168.261C846.314 168.501 846.616 168.655 846.943 168.694C847.269 168.734 847.599 168.656 847.873 168.476L1013 60.1478C1013.92 59.5705 1014.72 58.8112 1015.34 57.9161C1015.97 57.0209 1016.4 56.0087 1016.62 54.9409C1016.83 53.8731 1016.83 52.7721 1016.61 51.7048C1016.39 50.6376 1015.96 49.6264 1015.33 48.7328C1006.13 35.7768 994.199 25.004 980.371 17.1788C979.535 16.7008 978.697 16.2518 977.861 15.8038C976.323 14.9699 974.555 14.6588 972.825 14.9175C971.095 15.1762 969.496 15.9906 968.269 17.2378C968.269 17.2378 868.99 136.321 846.003 166.467Z" fill="url(#paint0_linear)"/>
<path d="M1010.62 172.767L781.661 230.467L781.483 230.518L667.76 259.182H896.129H896.175C914.163 256.993 931.658 251.817 947.941 243.867C970.462 233.079 990.143 217.165 1005.41 197.402C1009.53 192.123 1013.28 186.564 1016.63 180.766C1017.16 179.844 1017.42 178.783 1017.36 177.717C1017.29 176.651 1016.92 175.627 1016.28 174.773C1015.64 173.919 1014.76 173.273 1013.75 172.916C1012.75 172.56 1011.66 172.507 1010.62 172.767Z" fill="url(#paint1_linear)"/>
<path d="M1033.02 89.8498C1032.85 88.9125 1032.46 88.0293 1031.88 87.2726C1031.3 86.5159 1030.55 85.9071 1029.69 85.4962C1028.83 85.0852 1027.88 84.8837 1026.93 84.9081C1025.98 84.9326 1025.04 85.1823 1024.21 85.6368C1024.21 85.6368 856.963 180.082 817.69 203.318C817.403 203.492 817.189 203.764 817.087 204.084C816.985 204.404 817.002 204.75 817.135 205.058C817.268 205.367 817.508 205.616 817.811 205.761C818.114 205.907 818.459 205.937 818.783 205.848L1021.94 151.735C1024.28 151.121 1026.41 149.877 1028.1 148.139C1029.78 146.401 1030.96 144.234 1031.5 141.874C1032.28 138.288 1032.97 134.674 1033.5 130.997C1034.41 124.652 1034.9 118.253 1034.96 111.843C1034.98 104.468 1034.33 97.1074 1033.02 89.8498Z" fill="url(#paint2_linear)"/>
<path d="M932.933 1.10985C930.399 0.939181 927.838 0.85252 925.25 0.849854H840.85C840.604 0.849854 839.768 0.855851 838.593 0.868851C850.425 17.6919 858.745 36.7275 863.055 56.8382C867.366 76.949 867.578 97.7222 863.68 117.917C863.625 118.232 863.681 118.555 863.838 118.834C863.994 119.112 864.242 119.328 864.539 119.446C864.836 119.563 865.164 119.574 865.469 119.478C865.773 119.382 866.035 119.184 866.211 118.917L937.26 11.3748C938.006 10.4945 938.494 9.4246 938.668 8.28384C938.843 7.14309 938.699 5.97618 938.25 4.91271C937.802 3.84925 937.068 2.93085 936.129 2.25954C935.19 1.58822 934.084 1.19026 932.933 1.10985Z" fill="url(#paint3_linear)"/>
<path d="M382.011 341.368C389.31 341.357 396.353 338.676 401.811 333.829V314.173H381.447V319.173H396.457V331.434C392.392 334.613 387.385 336.349 382.225 336.366C370.248 336.366 362.709 327.63 362.709 315.866V315.723C362.709 304.732 370.53 295.502 381.45 295.502C387.001 295.32 392.398 297.347 396.457 301.139L400.05 296.912C395.118 292.755 389.975 290.36 381.661 290.36C366.861 290.36 356.931 302.337 356.931 315.86V316.001C356.929 330.096 366.511 341.368 382.011 341.368ZM430.202 340.523H463.527V335.38H435.768V291.204H430.202V340.523ZM509.746 341.368C524.753 341.368 534.969 329.461 534.969 315.868V315.723C534.969 302.123 524.894 290.359 509.887 290.359C494.88 290.359 484.664 302.266 484.664 315.859V316C484.664 329.602 494.739 341.368 509.746 341.368ZM509.887 336.225C498.614 336.225 490.441 327.066 490.441 315.863V315.723C490.441 304.523 498.473 295.502 509.741 295.502C521.009 295.502 529.187 304.661 529.187 315.864V316.005C529.192 327.207 521.157 336.223 509.887 336.223V336.225ZM562.587 340.525H584.499C595.279 340.525 602.399 335.525 602.399 327.068V326.923C602.399 320.159 597.679 316.777 591.831 315.016C595.706 313.325 599.652 310.016 599.652 303.602V303.461C599.676 302.001 599.408 300.55 598.864 299.195C598.319 297.84 597.509 296.607 596.482 295.57C593.664 292.822 589.225 291.202 583.589 291.202H562.589L562.587 340.525ZM568.087 313.188V296.208H583.094C590.14 296.208 594.015 299.378 594.015 304.24V304.381C594.015 310.158 589.365 313.188 582.672 313.188H568.087ZM568.087 335.522V318.123H583.657C592.257 318.123 596.757 321.223 596.757 326.578V326.719C596.757 332.219 592.107 335.526 584.639 335.526L568.087 335.522ZM625.087 340.522H630.794L636.642 327.488H663.485L669.257 340.523H675.246L652.77 290.852H647.557L625.087 340.522ZM638.826 322.485L650.099 297.333L661.299 322.485H638.826ZM700.82 340.523H734.146V335.38H706.386V291.204H700.82V340.523Z" fill="#121E3A"/>
<defs>
<linearGradient id="paint0_linear" x1="899.26" y1="-55.8" x2="952.57" y2="286.168" gradientUnits="userSpaceOnUse">
<stop stop-color="#0083C0"/>
<stop offset="0.519" stop-color="#094F7C"/>
<stop offset="1" stop-color="#121E3A"/>
</linearGradient>
<linearGradient id="paint1_linear" x1="793.618" y1="-35.3548" x2="797.636" y2="305.099" gradientUnits="userSpaceOnUse">
<stop stop-color="#0083C0"/>
<stop offset="0.519" stop-color="#094F7C"/>
<stop offset="1" stop-color="#121E3A"/>
</linearGradient>
<linearGradient id="paint2_linear" x1="886.763" y1="-51.4518" x2="906.87" y2="287.072" gradientUnits="userSpaceOnUse">
<stop stop-color="#0083C0"/>
<stop offset="0.519" stop-color="#094F7C"/>
<stop offset="1" stop-color="#121E3A"/>
</linearGradient>
<linearGradient id="paint3_linear" x1="875.046" y1="-66.8051" x2="991.163" y2="362.211" gradientUnits="userSpaceOnUse">
<stop stop-color="#0083C0"/>
<stop offset="0.519" stop-color="#094F7C"/>
<stop offset="1" stop-color="#121E3A"/>
</linearGradient>
</defs>
</svg>
